<svg viewBox="0 0 1024 1024" version="1.1" xmlns="http://www.w3.org/2000/svg" width="1em" height="1em">
    <rect x="192" y="128" width="640" height="768" rx="48" ry="48" fill="#000"/>
    <path d="M272 224h320v32H272v-32zm0 96h480v32H272v-32zm0 96h480v32H272v-32z" fill="#ffffff"/>
    <path d="M360 640l-64-64 64-64-22.4-22.4L248 576l89.6 89.6L360 640zM664 640l64-64-64-64 22.4-22.4L776 576l-89.6 89.6L664 640z" fill="#ffffff"/>
    <path d="M512 704l-32-8 64-256 32 8-64 256z" fill="#ffffff"/>
</svg>
